<svg width="34" height="34" viewBox="0 0 34 34" fill="none" xmlns="http://www.w3.org/2000/svg">
<path d="M8.27849 10.1141H6.89875C6.16688 10.1141 5.46499 10.4048 4.94749 10.9223C4.42998 11.4398 4.13925 12.1417 4.13925 12.8736V25.2913C4.13925 26.0231 4.42998 26.725 4.94749 27.2425C5.46499 27.76 6.16688 28.0508 6.89875 28.0508H19.3165C20.0483 28.0508 20.7502 27.76 21.2677 27.2425C21.7852 26.725 22.076 26.0231 22.076 25.2913V23.9115" stroke="black" stroke-width="2" stroke-linecap="round" stroke-linejoin="round"/>
<path d="M20.6962 7.35457L24.8355 11.4938M26.7464 9.54147C27.2898 8.99806 27.5951 8.26104 27.5951 7.49255C27.5951 6.72405 27.2898 5.98703 26.7464 5.44362C26.203 4.90022 25.466 4.59493 24.6975 4.59493C23.929 4.59493 23.192 4.90022 22.6486 5.44362L11.038 17.0128V21.152H15.1772L26.7464 9.54147Z" stroke="black" stroke-width="2" stroke-linecap="round" stroke-linejoin="round"/>
</svg>
