<svg width="15" height="14" viewBox="0 0 15 14" fill="none" xmlns="http://www.w3.org/2000/svg">
<path d="M1.25 3.07433L2.05 2.3335L12.5 12.0868L11.7062 12.8335L9.78125 11.0368C9.0625 11.2585 8.3 11.3752 7.5 11.3752C4.375 11.3752 1.70625 9.561 0.625 7.00016C1.05625 5.9735 1.74375 5.06933 2.61875 4.35183L1.25 3.07433ZM7.5 5.25016C7.99728 5.25016 8.47419 5.43454 8.82583 5.76273C9.17746 6.09091 9.375 6.53603 9.375 7.00016C9.37532 7.19883 9.33939 7.39609 9.26875 7.5835L6.875 5.34933C7.07579 5.2834 7.28715 5.24987 7.5 5.25016ZM7.5 2.62516C10.625 2.62516 13.2937 4.43933 14.375 7.00016C13.8646 8.20937 12.9979 9.25901 11.875 10.0277L10.9875 9.1935C11.8518 8.63551 12.5489 7.88047 13.0125 7.00016C12.5073 6.03758 11.7228 5.22661 10.7484 4.65945C9.77387 4.09229 8.64843 3.79169 7.5 3.79183C6.81875 3.79183 6.15 3.89683 5.525 4.0835L4.5625 3.191C5.4625 2.82933 6.45625 2.62516 7.5 2.62516ZM1.9875 7.00016C2.49272 7.96274 3.27716 8.77371 4.25165 9.34087C5.22613 9.90803 6.35157 10.2086 7.5 10.2085C7.93125 10.2085 8.35625 10.1677 8.75 10.086L7.325 8.75016C6.8901 8.70665 6.48427 8.52551 6.17498 8.23684C5.8657 7.94818 5.67162 7.5694 5.625 7.1635L3.5 5.17433C2.88125 5.67016 2.3625 6.2885 1.9875 7.00016Z" fill="black"/>
</svg>
