<svg width="15" height="14" viewBox="0 0 15 14" fill="none" xmlns="http://www.w3.org/2000/svg">
<path d="M7.5 5.25C7.00272 5.25 6.52581 5.43437 6.17417 5.76256C5.82254 6.09075 5.625 6.53587 5.625 7C5.625 7.46413 5.82254 7.90925 6.17417 8.23744C6.52581 8.56563 7.00272 8.75 7.5 8.75C7.99728 8.75 8.47419 8.56563 8.82583 8.23744C9.17746 7.90925 9.375 7.46413 9.375 7C9.375 6.53587 9.17746 6.09075 8.82583 5.76256C8.47419 5.43437 7.99728 5.25 7.5 5.25ZM7.5 2.625C4.375 2.625 1.70625 4.43917 0.625 7C1.70625 9.56083 4.375 11.375 7.5 11.375C10.625 11.375 13.2938 9.56083 14.375 7C13.2938 4.43917 10.625 2.625 7.5 2.625ZM13.0125 7C12.5073 7.96268 11.7229 8.77377 10.7485 9.34106C9.77397 9.90836 8.6485 10.2091 7.5 10.2091C6.3515 10.2091 5.22603 9.90836 4.25155 9.34106C3.27707 8.77377 2.49266 7.96268 1.9875 7C2.49266 6.03732 3.27707 5.22623 4.25155 4.65893C5.22603 4.09164 6.3515 3.7909 7.5 3.7909C8.6485 3.7909 9.77397 4.09164 10.7485 4.65893C11.7229 5.22623 12.5073 6.03732 13.0125 7Z" fill="black"/>
</svg>
