<svg width="32" height="32" viewBox="0 0 32 32" fill="none" xmlns="http://www.w3.org/2000/svg">
<path d="M15 21L31.5 4.5M15 21L20.25 31.5C20.3158 31.6436 20.4215 31.7653 20.5544 31.8506C20.6874 31.936 20.842 31.9813 21 31.9813C21.158 31.9813 21.3126 31.936 21.4456 31.8506C21.5785 31.7653 21.6842 31.6436 21.75 31.5L31.5 4.5M15 21L4.5 15.75C4.35639 15.6842 4.23469 15.5785 4.14937 15.4456C4.06405 15.3126 4.01869 15.158 4.01869 15C4.01869 14.842 4.06405 14.6874 4.14937 14.5544C4.23469 14.4215 4.35639 14.3158 4.5 14.25L31.5 4.5" stroke="white" stroke-width="2" stroke-linecap="round" stroke-linejoin="round"/>
</svg>
